<mxfile host="65bd71144e">
    <diagram id="qcPiH_w_DZi6pqxVaeRM" name="ページ1">
        <mxGraphModel dx="1006" dy="558" grid="1" gridSize="10" guides="1" tooltips="1" connect="1" arrows="1" fold="1" page="1" pageScale="1" pageWidth="1654" pageHeight="1169" math="0" shadow="0">
            <root>
                <mxCell id="0"/>
                <mxCell id="1" parent="0"/>
                <mxCell id="2" value="Snowflake" style="shape=image;imageAspect=0;aspect=fixed;verticalLabelPosition=bottom;verticalAlign=top;image=data:image/jpeg,/9j/4AAQSkZJRgABAQEAAAAAAAD/4QBCRXhpZgAATU0AKgAAAAgAAYdpAAQAAAABAAAAGgAAAAAAAkAAAAMAAAABAAAAAEABAAEAAAABAAAAAAAAAAAAAP/bAEMACwkJBwkJBwkJCQkLCQkJCQkJCwkLCwwLCwsMDRAMEQ4NDgwSGRIlGh0lHRkfHCkpFiU3NTYaKjI+LSkwGTshE//bAEMBBwgICwkLFQsLFSwdGR0sLCwsLCwsLCwsLCwsLCwsLCwsLCwsLCwsLCwsLCwsLCwsLCwsLCwsLCwsLCwsLCwsLP/AABEIAZABkAMBIgACEQEDEQH/xAAfAAABBQEBAQEBAQAAAAAAAAAAAQIDBAUGBwgJCgv/xAC1EAACAQMDAgQDBQUEBAAAAX0BAgMABBEFEiExQQYTUWEHInEUMoGRoQgjQrHBFVLR8CQzYnKCCQoWFxgZGiUmJygpKjQ1Njc4OTpDREVGR0hJSlNUVVZXWFlaY2RlZmdoaWpzdHV2d3h5eoOEhYaHiImKkpOUlZaXmJmaoqOkpaanqKmqsrO0tba3uLm6wsPExcbHyMnK0tPU1dbX2Nna4eLj5OXm5+jp6vHy8/T19vf4+fr/xAAfAQADAQEBAQEBAQEBAAAAAAAAAQIDBAUGBwgJCgv/xAC1EQACAQIEBAMEBwUEBAABAncAAQIDEQQFITEGEkFRB2FxEyIygQgUQpGhscEJIzNS8BVictEKFiQ04SXxFxgZGiYnKCkqNTY3ODk6Q0RFRkdISUpTVFVWV1hZWmNkZWZnaGlqc3R1dnd4eXqCg4SFhoeIiYqSk5SVlpeYmZqio6Slpqeoqaqys7S1tre4ubrCw8TFxsfIycrS09TV1tfY2dri4+Tl5ufo6ery8/T19vf4+fr/2gAMAwEAAhEDEQA/APXKKKKACiiigAooooAKKKKACiiigAooooAKKKKACiiigAooooAKKKKACiiigAooooAKKKKACiiigAooooAKKKKACiiigAooooAKKKKACiiigAooooAKKKKACiiigAooooAKKKKACiiigAooooAKKKKACiiigAooooAKKKKACiiigAooooAKKKKACiiigAooooAKKKKACiiigAooooAKKKKACiiigAooooAKKKKACiiigAooooAKKKKACiiigAooooAKKKKACiiigAooooAKKKKACiiigAooooAKKKKACiiigAooooAKKKKACiiigAooooAKKKKACiiigAooooAKKKKACiiigAooooAKKKKACiiigAooooAKKKKACiiigAooooAKKKKACiiigAooooAKKKKACiiigAooooAKKKKACiiigAooooAKKKKACiiigAooooAKKKguLu0tF33EqIO24jJPoBTUXJ2RMpKC5pOyJ6KxG8T6SrY2XJ91SPH6vV601TTr3AhlG8jPlvgPj6ZraWHqwXNKLsc1PG4epLlhNNl2iiisDrCiiigAooqKe4trZDJPKka+rED8qaTbshSkoq8nZEtFYj+JtJRioW5b3REI/VxVy01fTbwhY5drnokuFY/gCa3lhqsVzOLscsMbh5y5YzVy/RRRXOdYUUUUAFFFFABRRRQAUUUUAFFFFABRRRQAUUUUAFFFFABRRRQAUUUUAFFFFABRRRQAUUUUAFFFFABRRRQAUUUUAFFFFABRRRQBS1O/TT7V5jgyH5IlP8TmuCuLm4upWmncu7dz2HoB6VveKpCZ7OLPyrG7Ee5PWubr6XLqMYUlPqz4fOsVOpXdK/uxClVmUhlJDKQQRwQR3FJRXpnhnZ6Dqz3itbXDZnjXKMesie/uK3a8+0iVotRsWU43TLGfo52mvQa+YzCjGlV93Zn3eT4qWIoWnq46BRRRXnHsla+u47G2luH/AIRhF/vOegFcDd3lzezNNO5JJO1f4UHoorofFUrBbGHPyuZJCPdcAfzrla+jy2hGNP2nVnxWd4qU63sU9I/mFL05FJRXqngHW+H9XknP2K5fc4XMDt95gBkqTXR15vZSNFd2jqcFZ4vy3DIr0gHIB9Rmvmsxoxp1FKPU+3yXFSr0XCbu4/kFFFFeYe6FFFFABRRRQAUUUUAFFFFABRRRQAUUUUAFFFFABRRRQAUUUUAFFFFABRRRQAUUUUAFFFFABRRRQAUVHJcW0RxJNEh9HdVP5E0JcW0pxHNE59EdWP5A1XK7XsTzxva+pJRRRUlBRRRQBx/ij/j8t/8Arj/WufroPFH/AB+W/wD1x/rXP19bgv4ET87zP/e6nqFFFFdZ5xb07/j/ANP/AOvqD/0MV6LXnWnf8f8Ap/8A19Qf+hivRa+fzX44+h9hw/8Awp+oUUUV459Kcr4r/wBZp3+5P/Na5mum8V/6zTv9yf8AmtczX1eA/wB3j/XU/Ps2/wB8n8vyQUUUV2nlktv/AK+3/wCusf8A6EK9KX7q/wC6P5V5rb/6+3/66x/+hCvSl+6v+6P5V4Wbbx+Z9Zw9tU+X6i0UUV4h9SFFFNd44xud1QersFH5mjcTdtWOoqEXliTgXNuT6CVP8amyDyOh6U3FrdCjKMtncKKKKRQUUUUAFFFFABRRRQAUUUUAFFFFABRRRQAUUUUAFFFFABRRRQAUUUUAFcvrOvSK72lk20L8ssw6k9Cq/wBa3dSnNtY3kw6rGQPYt8oP6152SSSScknJJ7mvXy3DRqN1J62PnM7xs6KVGm7N6v0FZ3c7nZmPqxJP5mhXdDuRmVvVSQfzFNor6C3Q+Ou73N+w8R3UG2O7BmiHAbpIo+vQ11Nre2d6ge3lVuMlejr9VPNeb1JFNNA6yQyMjqcgqcGvOxGX06usNH+B7eDzmtQ92p70fx+89MorltP8TEbY79c9vOQc/VlFdLDPBcIJIZFdD3Ugj6HFeDWw9Sg7TR9bhcbRxSvTevbqcn4o/wCPy3/64/1rn66DxR/x+W//AFx/rXP19Lgv4ET4fM/97qeoUUUV1nnFvTv+P/T/APr6g/8AQxXotedad/x/6f8A9fUH/oYr0Wvn81+OPofYcP8A8KfqFFFFeOfSnK+K/wDWad/uT/zWuZrpvFf+s07/AHJ/5rXM19XgP93j/XU/Ps2/3yfy/JBRRRXaeWS2/wDr7f8A66x/+hCvSl+6v+6P5V5rb/6+3/66x/8AoQr0peFUn+6P5V4Wbbx+Z9Zw9tU+X6i013jjVnkZUReSzEAD6k1kX/iCytN0cP7+YcYU/Ip92rlLzUr6+YmaU7M/LGvCL7Yrlw+X1KustEehjM3o4f3Ye9Ly2+86K/8AEsMe6OyXzH6eY2Qg7cDqa5m4vLy6dnnmdyexOFH0UcVXor3qGFp0F7q17nyOKx9bFP8AePTt0CtPT9YvbFx87Swk/PG5z7ZUmsyitp041FyyV0c1KtOjLnpuzPS7e4huoY54W3JIMj2PcGpa5nwrcMVu7YkkLtlX2z8pArpq+SxNH2NRwP0TBYj6zQjV6sKKKK5zsCiiigAooooAKKKKACiiigAooooAKKKKACiiigAooooAKKKKAKeqQtcafexL1aIkf8BIf+leeV6fXI61oc0ckl1aIXiclpI15ZGPJIHpXsZbiIwvTl1Pms8wc6qVamr20foc7RS8jg0lfQHyAUUUUCCrFteXdm4e3lZD3A+6w9CKr0UpRUlZlRlKD5ouzL2o6hJqLwySIquibG2/dbnOQDVGiilCCguWOxVSpKrJzm7thRRRVGZb07/j/wBP/wCvqD/0MV6LXnWnf8f+n/8AX1B/6GK9Fr5/Nfjj6H2HD/8ACn6hRRRXjn0pyviv/Wad/uT/AM1rma6bxX/rNO/3J/5rXM19XgP93j/XU/Ps2/3yfy/JBRRRXaeWPjfZJG+M7HVseuDnFaF9rN/e/Jv8qHgCOPjOP7x61mUVnKnGUlKS1RtCtUhFwi7J7hRRRWhiFFFFABRRV6w0y81CQCJCIwRvlbIRR9fWpnOMFzSdkaU6c6slCCu2bXhWFs3lwfukLCPc/eNdRUFpaw2cEVvEMKg692J5JNT18jia3tqrmj9EwOH+rUI0nutwooornO0KKKKACiiigAooooAKKKKACiiigAooooAKKKKACiiigAooooAKKKKAMy/0SwvtzbfKmOf3kYHJ/wBod65O+0i/sSS6b4c8SR5K+2fSu/oIBBBAIIwQehFd+Hx1SjpujycZlVDE+8vdl3X6nl9Fdpf+HbO43SW2IJjk4A/dsfp2rlbuwvbJytxEQOdrjlGHqDXvUMXTr/C9ex8ji8ur4V3mrrutirRRRXWecFFFFABRRRQBb07/AI/9P/6+oP8A0MV6LXnWnf8AH/p//X1B/wChivRa+fzX44+h9hw//Cn6hRRRXjn0pyviv/Wad/uT/wA1rma6bxX/AKzTv9yf+a1zNfV4D/d4/wBdT8+zb/fJ/L8kFFFFdp5YUUUUAFFFPjjllZUjRndjgBRk80XtuNJt2Qyp7e1urpxHBE7sf7o4HuTW9p/hqR9sl8xRevlIfmPszdq6a3tra1jEcEaxoOyjGT6mvLxGZQp6U9X+B72DyWrW96t7q/H/AIBhaf4ahj2yXzCR+D5S/wCrH1PeugRI41VI1VUUYCqMAD6CnUV4NavUrO82fWYfCUsNHlpK35hRRRWJ1BRRRQAUUUUAFFFFABRRRQAUUUUAFFFFABRRRQAUUUUAFFFQXd1BZwvPM2EXoO7HsBTjFydkTKSgnKTskT0VxN54i1C4ZlgIgi6ALgufctVAajqYbcLu4znPMjEfkTivVhldRq8mkeBUz6hGVoxbXc9Forj7LxLdREJdqJo/7ygLIB/I11Fre2d4ge3lV/VejD6g81x18LVofEtO56WFzChivgevZ7liiiiuU7wpskcUyNHKiujdVcAg/gadRQnbVCaTVmc1f+GY23SWLbW6+U5yp7/K1czPb3Fs5jnieNx2YfyPSvS6hubW1u0MdxErqRxkfMP909a9XD5lOGlTVfieDjMkpVfeo+6/w/4B5rRXR3/hqaLdJZMZU6+W3Dj6HpXPOkkbFHVlYdQwII/A17tKvTrK8GfJ4jC1cNLlqq35DaKKUAkgDkngYrY5i7pUbSajYBQTtnRzj0Q7jXoVc94e0qS3BvLhdsrrtiU9VU9SfrXQ18zmNaNSraPQ+5ybDSoULz0cncKKKK809s5jxXGxFjLg7V81Ce2WwR/KuWr0XULJL+1lt24J+aNv7rjoa4C4tp7WV4Z0Kupxz0I9Qa+ky2tGVL2fVHxOd4aUK/tukvzIaKKK9Q8AKUAsQACSegAyTWnYaLf3xDbfKh7ySAjP+6OtdXYaPYWADInmS95ZAC2f9kdBXDiMdTo6bs9bB5VXxPvW5Y93+hzmn+Hry62yXGYITyARmRh7Cuqs9PsrFdtvEAe7nl2+rHmrVFeBXxdSv8T07H12Ey6hhVeKu+73CiiiuQ9EKKKKACiq91e2dmhe4lVPRerH6Ac1zF74lupSUtFEMf8AeYBpCP5Cuqhhatf4Vp3ODFZhQwvxvXstzr6K86Oo6mW3G7uM5zxIwH5A4q/Z+ItQt2VZyJ4uhDYDj3DV2TyuqleLTPNp59QlK04tLudtRUFrdW95Ck8DZRuo7qe4NT15UouLsz34yU0pRd0wooopFBRRRQAUUUUAFFFFABRRRQAUUUUAFcV4hvWuLwwKT5VtuTH/AE0zhia7WvPdWjePUb8MMb7iaRf91nJFerlcU6rb6I+fz6co0FFbN6lGiiivoz4oKkimmgcSQyOjjoUJB+hxUdFJq+jGm07o6iw8TEbY79c9B5yDn6so/pXSQzQToskMiujAEFTnr615nVi1vLuzcSW8rIe4HKt9QeK8vEZbCetPR/gfQYPO6lL3a3vLv1/4J6RRWBYeJLabbHdr5Mh43jJjY/zFbysjqrIwZWGQykEEexFeFVozou01Y+rw+KpYmPNSlcWiiisTpCqt3p1hejFxCrN2cfK4/wCBDmrVFVGUou8XZkThGouWaujnz4WsCciecD0+Q/zFX7TRdMsyHSLfIP45fmP4A8fpWjRW8sVWmrSkzlp4DDU5c0YK4VFPcW9tG0s8iog6lv6CkurqCzheeZgqKPxY+gFcJqWpT6jMXclYlJEUeeFHqfetcJhJYh32RhmGYwwcbLWT2X+Z1v8Ab+if8/J/79S//E1fguLe6jEsEiuh7r/Uda80q9p2o3GnTB0JaNsCWPPDD/GvQq5XHlvTbv5njYfPpuaVZLl8j0Kq91ZWd4uy4iVx2J4YfRhzS2l3b3kKTwNlW6jup9CKnrxPepy7NH1PuVodGmYD+F9PZsrNOg9BtP8AMVbtdB0u1IfyzK46NLyP++en6VqUVtLF1pKzkzlhl+GhLmjBXAAAAAYA4AFFFFcx3BRRRQAUUjMiKzOwVVGWZiAAPcmsC/8AEltDujs1E0g43nIjU+3c1tSozrO0Fc5sRiqWGjzVZWNyaaCBGkmkVEUEkscdPSubv/ExO6OwXHUec45+qqf61z91eXd45kuJWc9geFX6AcVXr3cPlsIa1NX+B8pjM7qVfdo+6vx/4BJLNNO5kmkd3PUuST9Bmo6KK9RK2iPn223dhRRRTEbfh69a3vBAT+6udqYz/HnAIrta890mN5NRsAozsuIZG/3VcE16FXzmaRSqprqj7XIZylQcXsnoFFFFeUfQBRRRQAUUUUAFFFFABRRRQAUUUUAFYHiDSnukF3brmaJcSKOroOePcVv0VrRqyozU4nPicPDE03SnszzAggkEYIOCD2NJXe3+i2F9ufb5U5HEkfGT/tCuTvtIv7AlnTfD2ljBK4/2vSvpsPjadbTZ9j4fGZXXwutrx7r9TOooortPKCiiigAq9Zapf2DDypCY88xPkoao0VM4RmuWSujSnUnSlzQdmdzYa9YXm1JD5Ex42uflY/7LdK168wrVsNcv7LajN50A/gc8gf7LV4uIyz7VH7j6bB579nEr5r9Ud1RVOw1Kz1BC0LYdQN8bcOv4elXK8WUJQfLJWZ9RTqRqxU4O6YVDdXVvZwvPOwVFH4sfQCi6uYLSGSeZsIg/EnsBXCalqVxqMxdyViUkRRjoo9T712YTCSxErv4UebmOYxwcbLWT2X6sNS1K41GYu5KxKSIo88KPU+9UKKs2dncX0ywwLkn7xP3UX1NfTJQpQstEj4aUqmIqXesmVqK7MeGdO8jyy0nnbf8AW5/ix6elcre2VxYzNDMuCOVYfddfUVjRxdOu3GD1OnFZfXwsVKotGS6dqNxp0wdCTGxAljzww/xru7S7t7yFJ4GyrDkd1PoRXm1XtO1G406YOhJjYgSxnow/xrDGYNV1zR+L8zryzM3hX7OprB/gehUVBa3UF5Ck8LZRh+KnuDU9fMyTi7M+4jJTSlF3TCiiqV/qVnp6Bpmy7D5I1++34elOEJTfLFXYqlSNKLnN2SLtZF/r1jZ7kjPnzDjah+VT/tN0rm7/AFy/vdyK3kwH+CM8kf7TVl17eHyz7VZ/I+Xxme/Zw6+b/RF291S/v2PnSER9o0yEH4VRoor2YwjBcsVZHzNSpOrLmm7sKKKKozCiiigApQCSABkk4AHc1oWOkX9+QyJsh7yyAhcf7PrXWWGi2Fjtfb5s4HMknOD/ALIrixGNp0dN32PVweV18Vra0e7/AEKfh/SntUN3cLiaVcRqeqIeefc1v0UV8zWqyrTc5H3GGw8MNTVKGyCiiisjoCiiigAooooAKKKKACiiigAooooAKKKKACggMCCAQeoPIoooAw7/AMO2dxuktsQS9cAfu2P0rlbuwvbJ9txEVyflYco2PQ16NUNybQQyfavL8nHz+bjbj8a9PD4+pT92XvL8Tw8blFCsnOHuv8DzWir2pf2X55/s8SeXzu3/AHd2f4PaqNfRwlzRTtY+KqQ5JON727BRRRVGYUUUUAT2tzNaTxTxMQyMCcdGHcGvRLeZLiCGdPuyor/TIzivNK7zQN/9l2m7OcyYz6bzivGzWmuRT67H02QVpe0lS6WuUvFRP2S0GeDcHPv8hrkK7/WNPOoWvlocSxt5kWehbGMGuDlilhkeKRSroSGU9QRWuW1IulyLdHPnlKccR7RrR2GV32i2ttb2Nu0QUtMgkkcdWJ964GtrRtZexcQTktasfqYye49vWtcfRnVpWh0/EwynE0sPXvV66X7HbVnaxa21xY3BmCgxRtJG56owHrV3z7cxed5qeVt378jbtxnNcdrOsves1vAStqp5PQykdz7V4eDoVKlROOlup9VmWKo0aDU9eZaLuYlFFPjjkldI41LO5AVV5JJr6vbc/P0m3ZHV+FSfs16M8CZMe3y10VZujac2n2pRzmWVhJLjoDjAArSr5DFzjOtKUdj9Gy+nKlhoQnukRXEyW8E07/diRnx64GQK87urma7nlnlYlnJPPYdgK7XXt/8AZd3tzn93nHpvGa4OvWyqmuRz67Hz2f1pe0jS6WuFFFFeyfMhRRRQAUUVe03+y/PH9oeZ5fG3b93Of4/apnLli5WuaU4e0ko3tfuR2lhe3r7beItg/Mx4Rc+prqrDw7Z2+2S5xPL1wR+7U/Sta2NoYY/svl+Tj5PKxtx+FTV83iMwqVPdj7q/E+1wWUUKKU5+8/wAAKAAAAOgHAooorzT3AooooAKKKKACiiigAooooAKKKKACiiigAooooAKKKKACkLKoJYgAdSTgD86y9Q1yxstyKfOnH8CHgH/AGmrlL7Vr+/JEj7Yu0ScLj39a78PgalbV6I8jGZtRw14r3pdl+rOiv8AxHa2+6O0Anl6buka/j3rlru+vL199xKzYPyr0Rf91arUV79DCU6HwrXufI4vMK+KfvvTstgooorqPPCiiigAopeTwOta2n6DfXm15B5EB53OPmYf7K1nUqwpLmm7G9GhUry5KauyhaWs15PFBEpLOeSOir3Jr0SCFLeGGFPuxIqD3wMZqCx0600+PZAvzN9+RuXb8fSrdfN43F/WJJR2R9tleX/U4uU/if4BWTq+kRaghkjAW6QfK3ZwP4WrWorjp1JUpKUXqelWowrwdOorpnmUsUsMjxSqVdCQynqDTK7rV9Ii1CMyRgLdIPlbs4H8LVxEsUsMjxSqVdCQytwQa+pwuKjiI3W/VHwOPwE8HOz1i9mHmS7PL3tsznbk7c/SmUU+OOSV0jjUs7kBVUZJJrq0WpwaydgjjkldI41LO5AVV5JJrttH0eOwQSygNdOPmPUID/CtGj6PHYIJZQGunHzHqIwf4VrXr57G432n7unt+Z9lleVqglWrL3ui7f8ABCiiivJPoSO4hS4hmhf7sqMh9sjGa86u7WaznlglUhkJwT0ZexFek1TvtOtNQjCTr8y/ckXh1/H0r0MFi/q8mpbM8fNMv+uRUofEvxPO6K19Q0K+s9zoDNAOdyD5lH+0tZPTg19JTqQqLmg7nxFahUoS5KisxKKKK0MQooooAs2l9eWT77eVlz95eqN/vLXVaf4jtbjbHdAQS9N3WNj9e1cZRXLXwlOv8S17noYTMK+FfuPTs9j08MrAFSCD0IOQfypa8/sdWv7AgRvui7xPyuPb0rq9P1yxvdqMfJnP8Dngn/ZavAxGBqUdVqj67B5tRxNov3Zdn+jNWiiiuA9cKKKKACiiigAooooAKKKKACiiigAooooAK5/xDqj2yizgbEsq5kYcFEPGB7mugrz3VZHk1G/LHO24mjX2VXIFejl1FVat5dDxc5xMqFC0NHLQpEkkk8k8nNJRRX058KFFFFAgooqza2V5evst4mf1boq/VjxSlJRV5MuEJTfLFXZWq/Y6Vf37Dy4ysXeWTIQfTua6PT/Dlrb7ZLoieUchf+Wan1x3rdVVUBVUKoGAFAAA9gK8fEZml7tLXzPo8Hkcpe9iHZdupl2GhWFltdh50w6vIAQD/sr0rVoorxKlSdR803c+po0KdCPJTVkFFFMklihUvK6Io7uQB+tQlfRGraSux9FZTeINFU4+0E4/uxyEfyqe31bS7ptkNwu/+64KH8NwFavD1UruL+4544uhJ8sZq/qi9WXqujwaiodSI7hRhXxww9GxWpRU06kqcuaDszStRhXg4VFdM5D/AIRW/wD+fi2/8if/ABNbWlaNBpwMjESXDDBfHCj0TNatFdFXG1qseWT0OKhleGoT54R1CiimySRRKXldUQdWcgD9a499j0W0ldjqKyZPEGjoSBMzkcHYjY/MipbfWtJuWCJcBXPaQFP1bit3h6qV3F/ccyxmHlLlU1f1NGigEHBHIPIxRWB1BWTf6FYXu51HkzH+OMYUn/aXpWtRWlOpOm+aDsY1qFOvHkqK6PPr7Sr+wY+ZGWi7SxglD9e4qhXp7KrAqyhlIwQwBBHuDWFf+HLW43SWpEMp5K9Y2P07V7eHzNP3aunmfLYzI5R97Du67dTjaKs3VleWT7LiJk9G6q30YcVWr2IyUleLPnJQlB8slZhRRRTIClBIII4I5GKSigZ2Hh/VXuVNncNuliXMbnq6DjB9xXQV57pUjx6jYFTjdcQxt7qzgGvQq+YzGjGlVvHqfdZNiZV6Fp6uOgUUUV5x7QUUUUAFFFFABRRRQAUUUUAFFFFABXFeIrJre7M6j91c7mz6SZyQa7Wobq1gvIXgnXcjfmD2IrrwmI9hU5unU8/MMH9bouC36HmtFbl54c1CBma3xPF1GMBx7FaoDS9VLbfsdxnOMmNgPzPFfTQxFKaupI+FqYOvTlyyg/uKVSwwT3DiOGN5HPZATx6nFbtl4ZuZCr3jiJOuxCC5H16CuntrO0tECW8SoO5A+Yn1JPNcdfMadPSGr/A9LCZLWre9V91fic/YeGQNsl+2eh8lDx9GYf0rpIooYUWOJFRFAACjAwKfRXg1sRUrO82fW4bB0cKrU18+oUUUVgdYUEhQSxAAGSScAD3JrMv9asLHchbzZh/yzjOcH/aPQVyd9q9/fEh3KRdooyQv49678PgalbXZHk4zNaOG91e9Lsv1Oiv/ABFaW26O2AnlGRuziNT9R1/CuVur68vXL3ErN6L0Vfoo4qtRXv0MJTofCte58hi8wrYp++9Oy2ClBIII4I5BHakorqOA6vw/q8krCxuW3Ng+Q7Hkgfwk/wAq6WvN7Jyl5ZuDgrPEf/HhXpA5APqK+azKjGnUUo9T7fJMTOtRcJu7j+QUUUV5h7pFcTxW0Es8pwkalj6n2FcDqGo3WoSs8jERgny4wflUfT1rpPFErLZwxg4EkwLe4UHiuOr6DLKEVD2r3Z8dnmKm6nsE9Fv5hRRRXsHzZqWGtX9iQu/zYe8cpJx9D1rqrHWdPvgFV/Lm7xSHB/A9DXA0oJBBBII6EcEVw4jA0q2uzPWwma18N7t7x7P9D0+iuJsPEF7abUmzPCMDDH51A/ut/jXU2Wp2F+B5Mg345jbhx68GvBr4OrQ1auu59bhMyoYrSLs+z/rUu0UUVxnpDJYoZkaOVFdGBBDDPBrm7/wyDuksGx1PkuePorH+tdPRW9HEVKLvBnJicHRxStUXz6nmk0E9u5jmjeNx2cEceozUVek3NnaXaFLiJXHYkfMD6gjmuYvfDNzGWezcSp/ccgOB9ehr3qGY06mk9H+B8li8lrUfepe8vxOdoq4dL1UNt+x3Gc4yI2I/McVoWfhzUJ2VrjEEXU5wXPsFrsniKUFdyR5tPB16kuWMH9wnh2ya4uxOw/dW21s+smcgCu1qG1tYLOFIIF2ov5k9yamr5jFYj29Tm6dD7rL8H9UoqD36hRRRXKegFFFFABRRRQAUUUUAFFFFABRRRQAUUUUAFFFFABRRRQAUVFPcW9shknkSNB3Y4yfQVzOoeJZH3R2ClF5BlcfMf91e1dNHDVK79xfM4sVjqOFV6j17dToLzULKxXdcSAMfuovLt9FrldQ8QXl1ujgzBAeMD/WMOnzNWPJJLK7PI7O7ElmY5JJple9h8vp0tZas+RxmcVsR7sPdj+P3ikkkkkknqTyaSiivRPGCiiigQUUUUATWv/Hzbf8AXaP/ANCFekr91foK82tf+Pm2/wCu0f8A6EK9JX7q/QV4Obbx+Z9bw98NT5C0UUV4p9Qc54q/1Fp/10b+VclXW+Kv9Raf9dG/lXJV9Rl38BHwWc/73L5fkFFFFegeOFFFFABTlZ0YMjFWHQqSCPyptFA9joLDxJcw7Y7wGaPpvHEg+vY11Fre2d6m+3lV+Mlejr/vL1rzepIppoHWSGRkdTkMpwRXmYjLqdTWGj/A9vCZzWoWjU96P4/eemUVyth4mZdsd8u4dPNjHP8AwJa6WC4t7lBJBIkiHjKnOD6GvCrYapQfvo+swuOo4pXpvXt1JaKKK5ztCiiigAooooAKKKKACiiigAooooAKKKKACiiigAooooAKKKKACiiigArO1bU49Ng3YDTyZESf+zH2FaNcN4hmeTUp1JysIREHoNoY124Kgq1W0tlqeXmmKlhaHNDd6IoXN3dXkhkuJGducA/dUeiiq9FFfVKKirI+AlJzfNJ3YUUUUyQoopyI8jBEVmYnACjJP5UD32G0VoXWlXlnax3NwAhklEax/wAYypOW/Ks+ohOM1eLuaVKU6T5ZqzCiiirMia1/4+bb/rtH/wChCvSV+6v0FebWv/Hzbf8AXaP/ANCFekr91foK8HNt4/M+t4e+Gp8haKKK8U+oOc8Vf6i0/wCujfyrkq63xV/qLT/ro38q5KvqMu/gI+Czn/e5fL8gooor0DxwoorSn0a/igiuUTzYXQPmPlkB/vColUjBpSdrmsKU6ibgr23M2il5HB60lWZhRRRQIKntrq6tJBJbysjDrg8EehFQUUmlJWZUZOL5ouzO90jVY9RiIYBbiMDzEHQj+8vtWnXn+j3DW2oWrg8O/lMOxD/LXoFfL47DqhU93Zn3uVYyWKo3n8S0CiiiuA9YKKKKACiiigAooooAKKKKACiiigAooooAKKKKACiiigAooooAK4bxBE8epzsQQsoR0PqNoBruazdW0xNShABCzxZMTHpz1U+1duBrqjVvLZ6Hl5phZYqhyw3WqOBoqe4tLq1do54nQg4yR8p+h6VBX1Sakro+AlFxfLJWYUvJ4HU9KvWWk398w8uMpH3lkBCD+prrLDQ7Cy2uw86cfxyDIH+6vSuPEY2nR0bu+x6WDyyvitUrR7v9O5zmn6De3m2SUGCA87mHzsP9lf8AGusstNsbBQIYxv8A4pG5c/iauUV4GIxlSvo3Zdj6/CZbQwusVeXd/wBaGB4p/wCPK2/6+V/9AauOrsfFP/Hlbf8AXyv/AKA1cdXt5b/AXqz5bO/97fogooor0TxSa1/4+bb/AK7R/wDoQr0lfur9BXm1r/x823/XaP8A9CFekr91foK8HNt4/M+t4e+Gp8haKKK8U+oOc8Vf6i0/66N/KuSrrfFX+otP+ujfyrkq+oy7+Aj4LOf97l8vyCiiivQPHCvRtP8A+PKy/wCuKfyrzmvRtP8A+PKy/wCuKfyrx81+CPqfS8P/AMSfoVb/AEPT73cwXyZj/wAtIwBk/wC0vQ1yt9o+oWJJZPMhzxJHyPxHX9K76ggEEEAgjBB5BFedh8dVo6bo9rF5TQxPvJcsu6/U8vortr/w9ZXW6SD9xMcn5R+7Y+6jp+FcteaZf2TETRNt5xIgLIR65Fe9QxlKvs7PsfJYvLa+F1krruilRRU9va3V06pBE7knHA4H1PSuptRV2efGLk7RV2WdIt2uNQtFAOEcSMR2CfNzXoFZej6UmnRMzkNcSgeYw6KP7q1qV8vjsQq1T3dkfeZTg5YWj7+71CiiiuA9cKKKKACiiigAooooAKKKKACiiigAooooAKKKKACiiigAooooAKKKKAGvHFKNskaOPR1DD8jUC2GnKdwtYM/9c1P8xVmiqUpLRMiVOEndoAAoAAAA4AAwB+AoooqSwooooAwPFP8Ax5W3/Xyv/oDVx1dj4p/48rb/AK+V/wDQGrjq+ny3+AvVnwmd/wC9v0QUUUV6J4pNa/8AHzbf9do//QhXpK/dX6CvNrX/AI+bb/rtH/6EK9JX7q/QV4Obbx+Z9bw98NT5C0UUV4p9Qc54q/1Fp/10b+VclXW+Kv8AUWn/AF0b+VclX1GXfwEfBZz/AL3L5fkFFFFegeOFejaf/wAeVl/1xT+Vec16Np//AB5WX/XFP5V4+a/BH1PpeH/4k/QtUUUV8+fYBSFVYFWAKnggjIP1BpaKAKxsNOY7jawZ/wCua/4VOkcUY2xxog9EUKPyFOoqnKT0bIjThF3irBRRRUlhRRRQAUUUUAFFFFABRRRQAUUUUAFFFFABRRRQAUUUUAFFFFABRRRQAUUUUAFFFFABRRRQAUUUUAYfiaNn09GUcRTo7ew2sv8AWuLr0yeGO4hlgkGUkUqw+veuA1DT7nT5mjkBMZJ8qQD5XX/H1r6DLK0XD2T3Pj89ws1UVdLR6PyKVFFFewfNFiyUvd2aDq08Q/8AHhXpA4AHoBXM+H9IkjYX1ym07T5CMOef4yD+ldNXzeZVo1KijHofb5Jhp0aLnNW5vyCiiivLPeMDxREzWcMgGRHMA3sGB5rjq9LubeO6gmgkGUkUqfb0IrgL/T7rT5jHKp2kny5APlceor6DLK8XD2T3R8dnmFmqvt0tHv5Mp0UUV7B82KASQAMknAHvXpNohjtrVD1WJAfriuV0LR5ZpY7u4QrBGQ8YYYMjDkEewrsK+fzOvGclTj0Psciws6cZVZq3NsFFFFeOfSBRRRQAUUUUAFFFFABRRRQAUUUUAFFFFABRRRQAUUUUAFFFFABRRRQAUUUUAFFFFABRRRQAUUUUAFFFFABRRRQAUUUUAFMlhgnRo5o1dD1DjIp9FNNp3Qmk1ZmLJ4a0mRiwNxHn+GN0Cj6BkNWbXRdLtGDpEXcHKtNtZgfbAFaNFbyxNaS5XJ2OSOBw8Jc8YK4UUUVznYFFFFABTJYYZ0aOaNXRhgqwBFPopptaoTSaszGl8N6TIxYefHn+GJkCj8GU1NbaFpVswYRtIwIKmYq2CO4wBWnRW7xNZrlcmckcDhoy5lBX9AAA4AwB6UUUVznYFFFFABRRRQAUUUUAFFFFABRRRQAUUUUAFFFFABRRRQAUUUUAFFFFABRRRQAUUUUAFFFFABRRRQAUUUUAFFFFABRRRQAUUUUAFFFFABRRRQAUUUUAFFFFABRRRQAUUUUAFFFFABRRRQAUUUUAFFFFABRRRQAUUUUAFFFFABRRRQAUUUUAFFFFABRRRQAUUUUAFFFFABRRRQAUUUUAFFFFABRRRQAUUUUAFFFFABRRRQAUUUUAFFFFABRRRQAUUUUAFFFFABRRRQAUUUUAFFFFABRRRQAUUUUAFFFFABRRRQAUUUUAFFFFABRRRQAUUUUAFFFFABRRRQAUUUUAFFFFABRRRQAUUUUAFFFFABRRRQAUUUUAFFFFABRRRQAUUUUAFFFFABRRRQAUUUUAFFFFABRRRQAUUUUAFFFFABRRRQAUUUUAFFFFABRRRQAUUUUAf//Z;" vertex="1" parent="1">
                    <mxGeometry x="670" y="198" width="80" height="80" as="geometry"/>
                </mxCell>
                <mxCell id="3" value="AWS S3" style="sketch=0;points=[[0,0,0],[0.25,0,0],[0.5,0,0],[0.75,0,0],[1,0,0],[0,1,0],[0.25,1,0],[0.5,1,0],[0.75,1,0],[1,1,0],[0,0.25,0],[0,0.5,0],[0,0.75,0],[1,0.25,0],[1,0.5,0],[1,0.75,0]];outlineConnect=0;fontColor=#F0F0F0;gradientColor=#60A337;gradientDirection=north;fillColor=#277116;strokeColor=#ffffff;dashed=0;verticalLabelPosition=bottom;verticalAlign=top;align=center;html=1;fontSize=12;fontStyle=0;aspect=fixed;shape=mxgraph.aws4.resourceIcon;resIcon=mxgraph.aws4.s3;" vertex="1" parent="1">
                    <mxGeometry x="460" y="200" width="78" height="78" as="geometry"/>
                </mxCell>
                <mxCell id="4" value="AWS Aurora" style="sketch=0;points=[[0,0,0],[0.25,0,0],[0.5,0,0],[0.75,0,0],[1,0,0],[0,1,0],[0.25,1,0],[0.5,1,0],[0.75,1,0],[1,1,0],[0,0.25,0],[0,0.5,0],[0,0.75,0],[1,0.25,0],[1,0.5,0],[1,0.75,0]];outlineConnect=0;fontColor=#F0F0F0;gradientColor=#4D72F3;gradientDirection=north;fillColor=#3334B9;strokeColor=#ffffff;dashed=0;verticalLabelPosition=bottom;verticalAlign=top;align=center;html=1;fontSize=12;fontStyle=0;aspect=fixed;shape=mxgraph.aws4.resourceIcon;resIcon=mxgraph.aws4.aurora;" vertex="1" parent="1">
                    <mxGeometry x="70" y="200" width="78" height="78" as="geometry"/>
                </mxCell>
                <mxCell id="5" value="AWS DMS" style="shape=image;imageAspect=0;aspect=fixed;verticalLabelPosition=bottom;verticalAlign=top;image=data:image/png,iVBORw0KGgoAAAANSUhEUgAAAFAAAABQCAYAAACOEfKtAAAAAXNSR0IArs4c6QAAHjdJREFUeAG1nHvMZld53ffcZzy+m7GBYBt7xphLQxxiSIjAsWiukJtKovxRVfkjEkqlKIoSJVWlSIGIVola9ULbSFVVtX/lVuUm7AS7FAgJl6CGJA5gsAPB+IrB9hh7PDPf3LJ+az3PPuf9ZkAYtXu+9+y9n8ta69nnnPc957yvveP2t37q3NixY9B2VP815wo9V7GJl4F0jDs3cfB3rLwQmOOcrJ3bnDMOOOso3MpLB344ghVMfDTnrWpo7E5xjibNlXhnyrZNk2miQapnTmM1124znxOkiQ2txaDPmtAHSyBld7JCmJOWLNHM9OSTS7PZgchU09iUms1I8+MMLv0Urig4N/jJVbK1ObhGMpoPHOxu2XEY8Eb/ilsxK/oVD1pw4gffAA5uLTt7QOS5s3o5w6wWR56p2j5VMUh8oBmfNQbzpRlgwRXODl4KMMLEDRYa0oJvLA0JC27sScbOXE09Y16Ji7l9+Lc355adLvWfTVjRhD+4ODZQlLTTwNvAW4h7FQSIICzOIBRppCpJ+VO0BlOY7CyqGynF0/gzJxHaFhdxjl9ylLyR74AGsBanh6pjjRNnapEW+7SjiwsebA3lnjxHLJzOYy3k8k5WT6xP4S6sD22O581Dug9h9AG+Pp3Mj8OHOeDg8LKOKMLpmN40J/MUg185hW91AMgcxhoUgHPs6JxQOAV+cDWpUfRUrgHlO6eg6ARIzZrR70kVZqSAO9GRqU1DH4GOh5kXzeMI6Pm5s9pr2+0CnCLl81hg9PzTYBZCPnP7ym5sbSgyzNpaL7PETv7GdGRw8YGXHMNXeuXiq3aWcb2S46qdH8r4rYU0Txl0GoaM6ft42NkB6RfRJnFyQPAbwQUwDJpltFD15E2bBo3jI2EDSrG8FRiqF1qT7TbmnUdfr9BvcqFp4QcZ/uw4a4op2wB4rKzNhdc8OC4AlNpHiwD8vHazwetP0DXBtjGp2TuJ9y7QEPK0SPTWvFWcqYk7qxQdaXWKZxcqu+aNMnct2P2xDoF1Kr/1Ni5zNXgZeUd5LH6fo5owVxz8HIn03WxXlutoM3mxGHipe60/CD4Cl8ULgkU2Q0GVZ1pnTFWO3zESOD84yKVAXohUF5wqaKItA+LX+SQtXCEDIzHMYwNh8rNTbE4u+clJb0zeUmZb40YbrsYj3q17TXz2yLzbYEZPDHtnTUaq90Dv3zhl1IDi7KeMivTeXXxB1dbkssvvgqrHT2a38FeMjRCSnijTUrt5kkuE/YZn0/F41OY8Uytd8TugKwB3WzxZa/zoD5Y+RPBmAh1OB9cY29ovZ/m7J0CtMNb5i63cLaw4myccq6NDHNESaDh5ec22aQ1yASKjYg0gAclJPitT6QZu/mIxlPVzBGMEi66yfGjZVnbF1YcIBMTrfcr9kmyABlI/Scu23c8c4sSFiHnwFzt+i3R4xo1N77HzOkcQEtynbsdmoVc8hZdTLMV0rHUIg4atF8lXCGWzUJYMDY5MLHbbrKlsAtiZsBAlnrRKtbnmJK7anHoQ8F4QwiJOSBYcjLV/4YBEfxOwcotrbbcpUBUPr6ydX2Pimsv52N1mMIRtjKffE1cYAHuHla0xG4qDbTeXDTv8EICovPcQwIxGEu9LXYg/wUS+YSPK6FnIylJm4jwXIBidB+eCWUwV03BWJO5AC3ulZckHUyeSnVAyyJTeegWwcIXXOlg08H2eE72K80Qb+zMxhuapg0toXcbYZc4Qr8EatxNbXGMD3s0xniCoI0RGZbVwXsglYezUIh556d7xisP7xw3X7RnXXLV7XK3XJRfvHPv27Bj79u4YZ1TjM8fOjmef08v9uXH0mbPj84+cHp9/6PS49+9PjZOn4PBfFoNSpKFlpOA2bKiwNizodPyqpq7P+fEuyewoJWgBJ3MUiDv8HE0lRKAtovu5mAIxFsRgek5imqYuKnnEnhsvu2H/eMs/vmS88bUHx6UX7+rQC/a75L7q8l1+XSjg9Olz45Of3Rp//vGT470fOeHFtGxtWoWPNvFyLFvHxtHftUWbDyDFOpccClrXX2csOLQdb3zLxzWqPUAwNE6ymymWLOq0y+Yx8WrOK9vXmF+ixfq5nzo0vuvbDyZfsY8+fmp84r6T4/6/Pzkefvz0+NJTZ8bRp896IbZOZRH279s59uqIvPyyXePQFTpKX7BzHL527ziio/aml+4Zu/wWNMax42fH7951bPze3cf1zmThqNmmb9Fs2aU9YeSs/T02in3rtWANdrzhzX/pBVzAliQCWGcHNnCYgghA2z22M75VHDGXXrJrvOsdLxnXvnjvOH7i7PiTDzwz7nzfV8YXdCqm1sISffZteA22jaeLROnBi3aO137zvvH9b7xo3PLyfQ6/576t8cvvOjpOn2n9wQruwhOJXe9SS9fcPPSzTiXNsey7rjvytrfPQDPUYUsg/wq/ySY4hmoTMAonAXbyMf/MTx4at37LwfHZB06On3/nI+P9H3l2PP3MGSMQl1Rt9dd46RcB066sztnS+98Dj5zR6Xt83HP/qXHLK/aOG1+yR++fY3z83i3XEJlLLanpfNzEFT9BCYxGtjVvHWiuC+l6AyWGQJ/fvA/wPpjSsHFJ4utELk0otGM7hrkaOfNFjmyv/7aD9r3zXY+NR79Y52YQHGssIjQwJ5jGqVsuT7VRa+yZY+sY93zm5HjHf3nKsze8Zj/pwUrSHBt/FgBgAVTf+AVgp23zidLyPHHjeSArTGAW2pUoGZlCtrGZEFaklcPMewaHbMFIDKYrLzeVDElMEYFtLB9VLLjz0QIoGMFk1K3zmbOjxahRax7j6iv16WMtYbQ/1IZwjvE5+uNAs1PgB1eTGlnTTGcgH289fqTfwRhJAATMFsncY/fxzQVyTgCT2OMlf9rl+uWffdG45gX9ySsRxUmMxy6CkkLW2r6e54mvvnnP+JWfuVIsaa2/sY3pxaLOVYxJ0Jv9RZ5zMVT7as8TcwQKNAtXCS6Co6MHAGdPLcRB9lFDmkOTH5vGys+idNYYh6/fN/77v7l+/PH7nh53vl8fIg9zOhMrDIQbymAzHxz+lTPELnKMiw/yIbJ//MBtB/X+lw+RBBRkHdHBb0+g2C41htP8rttCJEm3t/zDtm61uH4eSICld8zzeB7mPaW8PD5aM1x4fNcHnh7fc9ul461vvsIvLmP+9tPHx/2f3xoPPXZqfPlJXcZ85cw4sXV28AHBMuzbp9eeMa64bPe46opd44WH9owbr9NlzPV7dE25d17GPPX0mfG/3vPseNtPXGby3h2ZsJOyQwXJkpQZDua9f8rO4q4uhfpA2P48sd6YItQgxsueyTwEkPtIaeLVnvXimdcbhdWetTSEFYbmv/4bj43fefdT45/8wOXjO15z8XjR1Xv8+t7bKvh5die10B/Xh8dH//rEuPtDx7ToYy6gofqobv3qU1ce8IYuur2tI9tHnAqrA81H4KzLMapx5848D+z19zJCpD8fWatiPMclf4DKqaQ6YG3AjxDH0OvVe9sB2nz+wZPj3/23x2V/fNx0477x8sMHxrXftGdcp2vEq1+wZxzYv1OvHeOALqBpx0+eHSdOnhvP6UL5SzpCOVIfefyMbuW2xifvPzlO6XrPO1ixG6eaq0fNUg/l+YtCBtj1YrSuD4Pn9iQgc43Vep2w9Ufj9PhoUYSFIIAFm8tg5DAK3Jc1JQSuKQQ08pQfnMB7K1sEIHKM+z7HXchWAiaWlhywBq1+WRz80UVP7MIFelrJD5FMfmhS7qnVPJ1RmplaQOvvpFz1dTScPFLQQuRaC0PWVzbsFdl224jhj77IPbbtaz9PBC5YHhT6Ylv7MhYobcXZdvquvcfxJWXJSy2G0dvO/+vniTlH0PgNPg/LMnv1SjlFd+G9ODWvCDrWxM2DFNkLgt1jxXwjzxMDnO35iyo7uJN3NUdT6WotjitbnE4GwATLTzs8DXCSFKA9BmDA1ntvdcTyYeLcAHYufY9bTFGYHNsS055wxB5/crVFClzVkzHzu+qVr/30xmg9ldenfY5IjESqsTAVa/3YoN+W71AddD6FLa4Scczm94Ekm6BJCCC+WJNaCzaTxZvqTT7NxTPFlWMKFGzSQiZU5bPD1uRMNV+ZjLfSBOz2hcPWjVBfPRgDrJX+wk2+XHUgdW6V5alPYcgxzqIKrK/+iWxfTqnMYwu55ULcUzBE3Hlg0K59sS7oaPL75QWqo1im1kGec9W3DfBc2JLa/owNKf9hPeLq5piadC3GdPBKG1rKZo4qojkmP5JZTLX21XtgwAiUh63b8qmHTTH6Z7ACWV+e9FECsHEKw90COX7lF64d1xxaffiXrwvrnhqipyRFguHO+oiUf00kTa88sm+8/WcPTebkK3Fdk7ytlcCFI0LO15+6qT8vbalff+T6e2GAphqREYqTPi2XDRi8iHkDWfmXdOJ7ESosYIV0+KX7x//4D0fGne99atzx3qPjAV3LuUCvRjFXwc3vIuVfcGVBi+K4XnzNNx8Yb779kvG6bzmgMhxtto43aokxprGQlVodfIE8DhDnauvLptIVDuXKmVu5NbjQ1iJKibu5yJm5gKU4GUHUG8v8kkcm6ypi0t7zvqfG995++fixH7zKr0e/uDXuufe5cf/nToyHHt3yhTK3ZNxhcFfBntyjs3L/3p1+In2Vnki/UHcvN+iJ9E0v1UX4kf1jz+4sGnm/c8fT46f/6fJAwQCStd7xUzOCpM31qmex2CxfspGtaOdr7KGjZAtnziVszKvvPZcQfLX3i8xUsjU4id5DBZOFDJwFeRXlVPu1dz08fusPvjx+7IeuGq+/9ZLxomv2+vV9t9v9vDcs9Mf+5vj46F89N+764LNj6/RYFtCLsuzQXsRZH3VtMCpW//C7ty+1UZNjay1ckjY6hSk0MBgV58XwehbQeoEK04G+1y5A22sMjvcIYJJC/tLO6VbuxPi3v/GI9+jNRw6Mm3Urd91L9vl1zbyV43aubuX0FcAJ3c49d/zcePyJU7mV0+3c5x48NT51/3EvGjvQO3FFNenhj6gpoxcRgxfWOlnQ0pwFSBmKWQ6WQDhHoTmF+VJGE6cyNHMCm9hPIcrkON1I07y3euE07yKybNl7a7ge81Uu7TN/d3zc99kTxa2sKnQe0evCNd6wQ6KWt4wqfR0vsuihuBonxfYazqPNxyP5iOyu5tSMrSidgynfZ1UCiTl85XEGWLoGg5zodSOHl5r3Bn3l2+KcUtFgFd3+3lEFs8oPlrHbucrNMPzW1THqG9Mxpo/G7UcQ2teXJOAYZnWZYlt94m7QV+lw5feB8jrYPSOX+HU9DwMEcSziXOV6PGPpgrN4owpXgjgqOtYFM02dFXV+h9s8VIlEHxnRmWiMcWWurVck9v9fv0/UibQoN5VIXaTN2aNZJPTUkeiY3M5FbDDIR7MXRePGSyGJ7G1fSzFfFq+KBWTV2DnlmdbmaPn4J9+MKi3G48NhWeBZyyqWIfZcJ5bD89JjnGD0taTuhcnSn46MKUpKAhQfUPYRvAJcbA5wjAuZ+cQvGOBcrw8L8vx+Y2KWJ9zGUwwYjZ0+c2sFpAetxX1+w334en2fWS14JaDeinA1z5qDcdvnkd48lRO/4vq0FnQdgUuVDVq702eKBRssZZe+SdjzrEcIWATn0eGo9vZful6XLbndWgvB3QvXhdAHJ8mNOQtZFQjFK2/aP371519YTOqKljAPBZD64muexu2+eSe8AaSFgML0UHZfgjqhPm2IahInVI7ft1pJ/bakbc7Xp3JwlEAORAJoIhu1OXzDgfE///PN4467nxzvvvuJ8cAXtpKnSL9P1VfV3lUloPVZF0DYQzD26/uSW199UL+1uWy87paL5IKxm0XM2N6Rnd6ha3zyJ0/BpBTZOfJ8o0CMnIrVh0iiAJ9v9tLQMgLWhhmcpFagmW/WmVdIAIRahSZhjD957xPj+9505fjxHz7k1yOPnRz3fOrYuF+XMg89enJ86YnT44mjp8aW7vC2tgQmwXv1aH+fXpf7SyXdieji+8br9o2b9COlV9x0YN6JPHn0tL5vOTr++T97QRdl/pbpU7OFWCh6EczugitVZ1sQ+BsAE+HuckRqAflypc5kMmtFK04+GfXXe6X3kHsewsrvGMOu4sJS/nKq+9f//oHxm7/3xfHjP3L1+M7XXjZe/MJ9fn3/m5aY5zM6qQvsj33i2Pjw/z027vrTr/hHSb2AaI42Coi2qb/OIriyPksM9erPa0U8Y9aFNdme7zsRfwxCUAEZBITxFGKksgNK84JnD9odNfHVuBc/Rn2p9AXdifynBwX04Lj5yEXj5S87uNyJHNo7LuJLpQO7Nu5E+EESry9+6dR4WPfMDz+2pTuRrfEJfSV6Wj+xiXYYSmSRuez1QraI0t3hrnGmC0OAlr9auE6lJx2muhc2/bR6pg09ba66Uky0sffKBmcLLVJYyI2SYPE+svy6lDuR53w30jHmMqeZrXKxITl6amA/G/NI8Hr/9aI431paY96vjUVNtVr0Pt7QD5UXIkdgv0XF5GLtrjuRAAPYpIzTgCWtXxrVx3jKIUoRCPSQuDQX5eHKprnz1dfJkQg/41vh2Fqbpi4YuGbbZlv7okd82/K/2vNEMGf+up4VH5h9DUj8vBNZ77oGoUC42fZeJCkLQ7H4qvWulzE5ImrfEmWBzq+4Dul05pNf4NauvjkDnqOe2MbSgEwsmN0mDjP555xYhTKvobL0r9I7LiiF6sDUFiyY9LXmDKYgXhxdbvR9VEHW0mK3Vg3Py0dUIcyO5As055aPDu55F1A0xpKzeTaQVnYEJn+JIDcLBHjZp5tBcInTyNxgbOrXzOmdL7+wkuML6XVl5YDMSeomcciIjk0BzVTY5LR/Lk7lP/Fkvjy/9pu4E1l+X+ecEkSuIZ3jkjb5KQ5d7GT9zdjWqPzDeshK48MGDb0gRqu4zu8CiOtSGKy1r3eo7cI2buXki/W+zUEXJPpzM2EKyVxbfB1XhTQgjiZB0MQSzoc+etQQ7/iXN+rnG7rdUm7HLvmV0wJai3WQXuTFsz3/VTcfGO/8pZeY54N/8Yx7ZynNp6gtYIQn+dExsebO4ZR3KNG91m2wdnJ23Pq6/32O9xFiOdz7TSGflJrmYwZH/hxEmIOTR0wBYM4QP3G6xtTwkkt2j//6H185rr/2wDh27Mz4wzsfH+9+z5fHQ4+cNFbnLFrQJIH94FAYLIIMwS1dPHS99ZaLx1u++4rx7fqxEvl/revCf/GvHtKDVvITX2I8by7gaOGQVbHmZ1g1eR0SZh8xyVFPPAvYBgNnIid/vbAJ7jj6TaCaF0BEG6BCk8+v9H/x524Yb7rtyoiR94EH9dvmTz6rO5HjXswvP3lqPPX06XFSPyY65Z+3jXkncpnuRA5dtVffiehORF9O3aTbwle+THcie7ST1I49d2b8pr4u+O0/enL4hxbrYgmwDGryrpjzDAhQY1EcmPGGjUntOEEF59tuvctH4OaC4FZzJ7gS0jHG7yOj4rznSEGAXllLFMfmedm5cP7Rt1wzbn/DFePSS1dfcYL1PBv/ncg99x4bH/zIV8Zd7z+qX3KtjrrSPfXUnDqwuVWN2GiL/sZxAfJk3nVMzO0LGBSAcuplJdaEjDdPUwxTUAF4voqbhC1ccbt37xxHDl80XvWKi8eRGy/ykXW17kQu06Lu07dw3AOfOXNuPPPsmfGsXs88e9pjvn373AMn/LpX34mcOKGyXD/FWkD0NJfN7aNP0NS8XT/usvE+mFo6Jz5YsOe/F2ZWDSP//AZpWxL7TVZufbLJwUDNe4TeTE1W81lNz51S+2SHbsHOjU/fd2x85v7n4hBk77gpXB40wQNcvyeavjRYiwMSi7LWH33k1yhOAgkqq4bTT8Dig9YNQREQbDTJ5jcPUgDrfpKXKHz2E1A2Dw2KoV+EJbbArLPzEVDpMCbWo9o4VaXok7C1OK6y2LHGqvm8HCnQ1mQNhR+c4Ddm/OKx/oXbXLJNe+G6JJymR6TGdHJ4ARk0+QaIMxdABPdtTJOs8+Qk3cApziyef/h93zk+/H++47z/qQQ5vs+svFYHftCCh902ayqbV6TGpsrvEz/wB/9ofOD3X2Utraf71g1vt7Z1b032V8yKMzHRAv3mr7MKsXR5NkEnmwYWCzhAq3mNCW0M52OfTRML2jB6ET909+vGn7/ntcZPOPh8K6iZXmD+2Z3fOj54xy2ZA9VOCyFrhYt/EYhztiWc+GVBOsD6yee6sDi6psRg1wJOAmaVkKIDijlgyxx/3kKw1ZdLwRMGIIkNdgOAlNZ2jrwet4/eNnDmRa2tshdXBTuuT/dauDVe46Cf8fRpvGFr7V7IaIKe+Cyatszhqt6K5J/XEDPYGUnwe7SCwPcnUQlPchYWX1DNkTgn9MJHyCq1RJUFpbKEZR2FOfKjLeMZQV5pNYRVkrLE9dALxySBhojuJdYx9nBFwWClS3nBXeKDtSNfQHTyLEIJ/ufeqHmfYq6X27Zx2yDmHwTE8lrR1imBOz7ytsfIED9Xwxp3jAe1WfLD5dUkNOGOynv2Zj55car3eKVRJrQ2tmMV0zbAOQt6jj+X8CD6XE9yE7hwSExkayVzKkVIYpY8QG1LuONEO2cM8gFTB5A9KWIjSJPlaCIflE0cfypXUk7vC+M4LRCO9sJUXkO2rXvsS22m75K1VHkr4Uid14GI+Uaeh82S+nyBqxYcTPxsX/9df1ZaZXUsxa4WcVs+4ic22vAvBkg2pqv0cdsP/Y2BybEUpTank2wPWHAR0ozwxNd0ePDPuoiVk7kfqJooFlklVvd7nWwlBOtfk01AgAXSdudokwcQQWARDR0NxiGtf1+3xn3okRN2Gd+j2lRBKXJxUMDUAh1xOgp8sR36pMjONHW6ooCs7OSSDqDrydBzawyAawlpCHZ866vvsIpOCmPwJ2Hf967AiVv8VTJ+/fPP3qLEQAs2qhJrW48dS6gBnNP4nlScIxgDod47J8aVFhtmzMxhQIbyejGB6jF4Came6LItB1TyiWv9+hSulS+jP6qVaCKjE65BEzBV68PZY/lTDOIqCR3s0hbZAxLU1ns1OaFwCvzEaFKj6HGmk43tHaXYqaXGkQpxF9D6mafZxXCV70WJgI1yY0IRLZjN6etAi1SUBZuXkhQoWxfiu4WKSWGBY0t+pGmbBBM1CTiMjenI4JLrGOek3smnePK6fbX/Xre1GEfx1kKa05MfKAwFqT6LbAGWbK7mcwKxycc3r1mNUXYB5unWOlBjijCgBg2SRcZRzaABWoqQb/Vp7sVgvvBljMmvTS4Lnfzh8adr25qbPgC2sGM2Fl7zaHIBBMdvIYiJv2sDisZ8scXY84ogqobqFb98K5dly7YWDlE5pEjjFww60rgaZ/d5F4qw5gW77Frw+2MdGFSS7x7UoLdAZmBMu2Zfz3+vS76POrIDCbHRwMNmf/NP/TiRlTxLjemC29bW8a5fRt0LJx5K8wtwfcvkBEjkLS4nRHhy11vs63ySjEGQccLT121ZtiBMfoq0ruQ2V/fG9CPnZk4R5EPRfI3XvLMnThyz9qTL6oyZv6Czk2gzcMbkMsYunNpXPrIUTuHkdHPxstdR5KOxFmQdh733eEiLumKB93WoeSKJCBetQY7umpdsul4U5Fhp6Yg8I0z79njnwF/43hGk2CG8pHsa/eFrs+sJug881sYD9cudSK0C4FPstEX0FIZdr46zFuV1b4GEVL4H+FuRfB46oMAssDCxB2wR7Nj+sHKtkz8zCJPvtxWMzsEcISxEbJnPozDTqanr6joqvST1+qSfzwPDV0giDsgyn+IsKn7XaJ1ZvDWxx8ROLA112vSp27HLQq4KJsen2Ga+i8e+4jR+nc6L5ugr9QphVDZrQpZsVYDHmqKNt46Ek5OW/OT0OEH9PLDAe0FI8xgwCwas3wcCytxtLahca5xJuE4DNypLbM1D48jGcFxRhdPJJDSi+34oa1nTVTuMuV6NmQTNZVNEnBOv5gThL53n8RGmlueBNTGc9gJJ5NGHVFvmWkyTro6CSQBaxdhmjAAbYzU3LpC21TO+hGL0K74yztjMjQ/dBZ4nzjxw0Kk/82uwHP3hNA41oZ1Attv5Ncc/cRM0bfM9cAasCB27ImY+m4nmbBK3kClccRa1hHpEuj9prVubdZxtVTiuWoiGSME1Kx1deMe47w+qiqk1Sgi2uWjQn6+z0hf9xtnUqgVMokXJt17tFtW2xG4+D0NDL5CQpjjGFhWLjxYZZuz2scOqKONULBiTH67zjv7wzxiAOvcCzxPPz3cBShIC8nsKhrhmbZrTeg4Hr38AgUhGBI9r35QAAAAASUVORK5CYII=;" vertex="1" parent="1">
                    <mxGeometry x="260" y="200" width="80" height="80" as="geometry"/>
                </mxCell>
                <mxCell id="6" value="CDC" style="shape=flexArrow;endArrow=classic;html=1;endWidth=20;endSize=6;width=43;" edge="1" parent="1">
                    <mxGeometry width="50" height="50" relative="1" as="geometry">
                        <mxPoint x="160" y="238.5" as="sourcePoint"/>
                        <mxPoint x="250" y="238.5" as="targetPoint"/>
                    </mxGeometry>
                </mxCell>
                <mxCell id="7" value="export" style="shape=flexArrow;endArrow=classic;html=1;endWidth=20;endSize=6;width=43;" edge="1" parent="1">
                    <mxGeometry width="50" height="50" relative="1" as="geometry">
                        <mxPoint x="350" y="238.5" as="sourcePoint"/>
                        <mxPoint x="440" y="238.5" as="targetPoint"/>
                    </mxGeometry>
                </mxCell>
                <mxCell id="8" value="snowpipe" style="shape=flexArrow;endArrow=classic;html=1;endWidth=20;endSize=6;width=43;" edge="1" parent="1">
                    <mxGeometry width="50" height="50" relative="1" as="geometry">
                        <mxPoint x="560" y="239.5" as="sourcePoint"/>
                        <mxPoint x="650" y="239.5" as="targetPoint"/>
                    </mxGeometry>
                </mxCell>
            </root>
        </mxGraphModel>
    </diagram>
</mxfile>